<?xml version="1.0" encoding="UTF-8"?>
<svg width="700pt" height="700pt" version="1.1" viewBox="0 0 700 700" xmlns="http://www.w3.org/2000/svg">
 <g>
  <path d="m302.14 167.49c0 35.707-28.945 64.652-64.652 64.652-35.711 0-64.656-28.945-64.656-64.652 0-35.711 28.945-64.656 64.656-64.656 35.707 0 64.652 28.945 64.652 64.656"/>
  <path d="m302.14 392.51c0 35.711-28.945 64.656-64.652 64.656-35.711 0-64.656-28.945-64.656-64.656 0-35.707 28.945-64.652 64.656-64.652 35.707 0 64.652 28.945 64.652 64.652"/>
  <path d="m527.16 167.49c0 35.707-28.945 64.652-64.656 64.652-35.707 0-64.652-28.945-64.652-64.652 0-35.711 28.945-64.656 64.652-64.656 35.711 0 64.656 28.945 64.656 64.656"/>
  <path d="m527.16 392.51c0 35.711-28.945 64.656-64.656 64.656-35.707 0-64.652-28.945-64.652-64.656 0-35.707 28.945-64.652 64.652-64.652 35.711 0 64.656 28.945 64.656 64.652"/>
 </g>
</svg>
