<?xml version="1.0" encoding="utf-8"?>
<!-- Generator: Adobe Illustrator 24.2.3, SVG Export Plug-In . SVG Version: 6.00 Build 0)  -->
<svg version="1.1" id="图层_1" xmlns="http://www.w3.org/2000/svg" xmlns:xlink="http://www.w3.org/1999/xlink" x="0px" y="0px"
	 viewBox="0 0 560 560" style="enable-background:new 0 0 560 560;" xml:space="preserve">
<style type="text/css">
	.st0{fill:#FFFFFF;}
</style>
<path class="st0" d="M280,0C205.7,0,134.5,29.5,82,82S0,205.7,0,280s29.5,145.5,82,198s123.7,82,198,82s145.5-29.5,198-82
	s82-123.7,82-198s-29.5-145.5-82-198S354.3,0,280,0z M420,398.5H140c-9,0-17.3-4.8-21.8-12.6s-4.5-17.4,0-25.2
	c4.5-7.8,12.8-12.6,21.8-12.6h280c9,0,17.3,4.8,21.8,12.6c4.5,7.8,4.5,17.4,0,25.2S429,398.5,420,398.5z M420,305.2H140
	c-9,0-17.3-4.8-21.8-12.6c-4.5-7.8-4.5-17.4,0-25.2c4.5-7.8,12.8-12.6,21.8-12.6h280c9,0,17.3,4.8,21.8,12.6
	c4.5,7.8,4.5,17.4,0,25.2C437.3,300.4,429,305.2,420,305.2z M420,211.9H140c-9,0-17.3-4.8-21.8-12.6s-4.5-17.4,0-25.2
	s12.8-12.6,21.8-12.6h280c9,0,17.3,4.8,21.8,12.6s4.5,17.4,0,25.2C437.3,207.1,429,211.9,420,211.9z"/>
</svg>
